<?xml version="1.0" encoding="utf-8"?>
<svg version="1.1" id="Layer_1" xmlns="http://www.w3.org/2000/svg" xmlns:xlink="http://www.w3.org/1999/xlink" x="0px" y="0px"
	 viewBox="0 0 2559.999 1140.938" enable-background="new 0 0 2559.999 1140.938" xml:space="preserve">
<path d="M2559.999,755.388h-60.407v-23.505c-0.059,0.023-0.118,0.045-0.177,0.069c-0.188-1.708-0.333-3.406-0.458-5.093
	c0.173,0.003,0.394,0.005,0.635,0.008v-1.982c-0.134-0.136-0.279-0.277-0.406-0.411c-0.094-5.26-0.177-10.519-0.021-15.768
	c0.139-0.122,0.283-0.231,0.427-0.34v-2.884c-0.201,0.052-0.404,0.093-0.604,0.152c0.019-1.31-0.181-53.506-1.396-61.573
	c-6.822-1.219-13.748-0.333-20.59-0.917c-1.262-6.005,2.928-11.524-20.747-8.519c-2.778-8.966,0.691-7.704-8.832-9.332
	c-1.042-0.8-24.828-18.365-27.922-19.653c-3.739,2.01-6.989,4.822-10.686,6.895c-0.427-4.614-0.708-9.259-0.042-13.852
	c1.021-1.042,2.052-2.083,3.125-3.114c-6.686-8.76-2.397-18.005-16.414-19.539c-4.51,0.365-5.666-5.051-8.842-7.238
	c-4.437,0.136-8.853-0.052-13.269-0.052c-1.042,0.864-2.042,1.739-3.031,2.625c-0.021,2.427-0.031,4.864-0.062,7.301
	c-7.176,2.177-14.8-0.26-21.976,1.677c-2.885,1.866-0.462,5.278-3.229,13.748c2.797,7.241,1.455,46.179,1.385,47.221
	c-0.229,3.062-5.187,2.864-4.718,6.103c-0.723,62.017,0.718,58.575-3.031,64.146c0.75-0.063,2.239-0.167,2.979-0.219
	c-0.698,1.406-1.416,2.802-2.083,4.218c0.323,0.625,0.979,1.864,1.302,2.489c-0.417,0.51-1.25,1.521-1.677,2.031
	c0.625,0.198,1.864,0.594,2.489,0.781c0.433,21.094-0.178,20.278-1.073,23.465c0.292,0.677,0.875,2.041,1.167,2.729l-0.646,0.26
	c-1.25-0.042-2.447-0.146-3.635-0.229c-0.021,0.062-0.062,0.177-0.083,0.24c1.187,0.333,2.385,0.781,3.572,1.344
	c1.573,7.29,0.448,14.893,1.115,22.319c-1.99,0.927-3.947,1.875-5.895,2.843c-9.977-5.239-21.663-2.739-32.411-3.666
	c-4.77-2.041-8.853-5.759-14.279-6.103c0.094,0.958,0.281,2.854,0.385,3.801c-2.156,0.698-4.406,1.042-6.582,1.5
	c-0.219-1.708-0.302-3.427-0.677-5.082c-2.166-2.593-5.301-4.124-7.988-6.061c-0.458-1.729-1.01-3.364-1.729-4.958
	c-1.666,0.781-3.333,1.552-4.947,2.354c-0.625-0.989-1.219-1.958-1.781-2.927c-0.854-0.01-2.562-0.042-3.416-0.052
	c-0.147-14.582-0.325-14.737,0.344-25.058c-0.167-0.469-0.5-1.427-0.667-1.906c0.24-2.177,0.406-4.374,0.625-6.541
	c-0.659-2.741-0.373-25.102,0.125-27.891c-0.177-0.552-0.552-1.666-0.729-2.229c0.344-2.458,0.614-4.937,0.937-7.395
	c-1.063-0.792-2.104-1.573-3.114-2.333c-3.271,0.385-6.739,0.729-9.54-1.323c0.573-1.489,1.177-2.968,1.781-4.458
	c-1.031-6.666,0.156-13.467-0.469-20.184c-3.218-3.031-8.53-0.198-11.811-3.437c2.901-9.575-0.676-1.264,1.666-13.987
	c-0.646-1.021-1.271-2.031-1.864-3.031c0.562-2.187,1.114-4.374,1.729-6.541c-2.937-3.822-8.145-2.26-12.196-3.656
	c0.458-1.771,0.937-3.52,1.416-5.27c-0.573-1.042-1.114-2.073-1.635-3.093c0-1.583,0.083-3.145,0.115-4.708
	c0.458-0.208,1.375-0.614,1.833-0.823c-0.687-1.344-1.354-2.677-2-3.999c3.385-14.354-6.237-7.068-10.759-10.665
	c-0.573-1.698,0.938-3.281,1.365-4.874c-4.283-8.248,2.762-5.878-1.792-12.769c3.694-13.394-5.466-7.853-11.196-10.936
	c0.864-1.239,1.75-2.458,2.677-3.666c-0.677-1.239-1.312-2.458-1.917-3.666c1.312-3.125,2.406-6.676-0.208-9.446
	c0.375,0.021,1.125,0.073,1.5,0.104c-0.125-3.145,1.083-7.468-2.573-9.04c-9.03-3.156-19.039,0.719-28.058-2.385
	c-1.896,2.01-4.499,0.552-6.676,0.094c0.698-0.792,2.094-2.364,2.802-3.145c-0.729-0.219-2.177-0.635-2.895-0.844
	c-0.521,1.562-0.906,3.166-1.25,4.77c-25.088-0.27-12.865,0.038-16.893,27.319c-3.249,0.167-6.551,0-9.707,0.781
	c-0.719,1.062-1.344,2.177-1.896,3.322c-19.362,0.948-38.744,0.5-58.126,0.635c-0.004-0.028-0.958-57.241-0.958-57.241
	c-1.031-2.114-3.489-3.124-5.197-4.593c0.479-0.938,1-1.854,1.542-2.771c-0.896-3.843-1.24-8.103-3.708-11.321
	c-4.166-1.406-8.801-0.344-13.123-0.677c-1.052-2.291-2.167-4.541-3.375-6.739c-40.284,1.942-42.247-1.183-45.524,2.156
	c0.885,1.708,4.27,2.593,3.625,4.77c-5.468,1.031-11.102,0.042-16.529,1.166c-1.156,1.198,0.344,2.364,0.833,3.5
	c-0.022,1.053-0.843,131.206-0.427,133.218c-0.719,2.791-1.135,5.718-0.125,8.509c-0.688,5.809-0.759,30.512-0.094,34.39
	c-0.78,3.323-0.701,33.087-0.354,36.89c-3.406,0.063-6.759-0.375-10.103-0.792c-1,0.729-1.833,1.604-2.677,2.468
	c-11.144,0.396-22.298,0.281-33.442,0.344c0.25-0.937,0.521-1.875,0.812-2.791c0.469,0.365,1.385,1.104,1.843,1.469
	c1.667,0.115,3.364,0.25,5.072,0.417c0.229-1.292,0.469-2.562,0.74-3.822c-0.458-0.437-1.385-1.312-1.854-1.75
	c-0.687,0.042-2.062,0.115-2.75,0.146c-1.031-0.677-2.031-1.344-3.02-2c-0.802-6.489,0.365-13.165-1.552-19.507
	c0.521-0.958,1.073-1.906,1.646-2.833c-0.417-1.01-0.802-2-1.167-2.989c0.896-5.28-0.396-10.634,0.406-15.924
	c-0.146-0.49-0.417-1.489-0.562-1.989c0.038-0.173,0.547-182.468,1.177-188.865c-1.416-1.385-2.833-2.749-4.239-4.083
	c0.573-3.01,0.854-6.082,0.021-9.061c1.146-4.624-0.229-9.394,0.99-13.987c-0.396-0.385-1.187-1.166-1.594-1.562
	c3.016-8.253-0.445-27.055,2.104-34.671c-0.354-0.521-1.062-1.552-1.416-2.073c0.791-3.135,1.25-6.416,0.187-9.54
	c1.698-4.395-0.302-8.936,0.812-13.373c-0.719-3.041-0.906-6.187,0.25-9.144c-0.937-3.145-1.24-6.468,0.187-9.519
	c-0.562-1.094-1.104-2.187-1.625-3.26c0.458-1.771,0.958-3.52,1.469-5.27c-1.229-3.156-1.229-6.572,0.625-9.488
	c-0.177-1.385-0.323-2.75-0.448-4.114c-2.895-1.229-5.583-3.02-8.676-3.635c-3.177,0.094-6.52,1.396-9.551-0.062
	c-0.625-6.634,0.031-13.331-0.823-19.955c0.25-0.521,0.739-1.552,0.979-2.073c-0.198-0.531-0.594-1.594-0.792-2.125
	c0.677-4.749,0.667-9.561,0.583-14.352c-1.365-1.291-2.708-2.604-4.01-3.916c-4.885,0.177-9.79,0.531-14.487-1.021
	c-16.178,4.508-47.121,0.65-60.751,3.812c0.792,5.176,0.073,10.373,0.271,15.57c0.375,0.469,1.115,1.406,1.489,1.875
	c-0.615,0.364-1.187,0.729-1.739,1.104c0.229,5.926,0.615,11.904-0.323,17.799c0.25,1.802,0.49,3.604,0.76,5.426
	c-10.227,3.372-19.299-2.065-19.497,5.02c2.186,14.063-0.738,80.95,0.969,86.569c-0.489,0.937-0.948,1.885-1.375,2.843
	c1.094,2.968,1.458,6.155,0.229,9.155c0.458,2.739,1.177,5.614,0.073,8.322c0.844,5.416,0.094,10.925,0.917,16.352
	c-1.354,1.218-2.697,2.437-4.02,3.666c0.003,1.286-0.334,247.509-2.52,255.906c-1.979-0.052-3.958-0.094-5.885-0.094
	c0.021-0.573,0.062-1.698,0.083-2.27c-0.24,0-0.729,0-0.969-0.01c0.042,0.614,0.146,1.833,0.187,2.447
	c-3.749-0.094-7.478-0.375-11.154-1.021c-4.458,1.427-9.124,0.635-13.644,0.094c-0.594-0.542-1.156-1.083-1.687-1.593
	c-1.083,0.573-1.916,1.989-3.229,1.802c-1.625-3.062-1.864-6.572-2.375-9.915c-1.479-0.51-2.927-1.01-4.364-1.521
	c-0.833,0.521-1.604,1.073-2.385,1.625c-0.365-1.333-0.708-2.656-1.021-3.958c-1.271-0.781-2.52-1.541-3.697-2.375
	c0.989-1.104,2.104-2.083,3.218-3.072c-0.479-2.041-0.989-4.062-1.5-6.062c0.739-1.052,1.51-2.083,2.291-3.104
	c-3.229-3.145-7.155-6.166-11.956-5.291c1.271-1.906,3.468-2.448,5.562-3.01c0.281-2.573,0.823-5.103,0.958-7.676
	c-4.385-3.281-10.082-4.76-13.352-9.457c-0.198-2.281-0.521-4.531-0.823-6.78c-1.687-0.437-3.385-0.864-5.041-1.271
	c-0.375-2.739-0.542-5.489-0.614-8.238c-1.791-0.677-3.697-1.083-5.27-2.146c-0.698-7.895,0.156-15.883,0.135-23.819
	c-1.917-0.75-3.843-1.468-5.739-2.177c-0.292-5.051,0.292-10.123-0.188-15.154c-2.479-2.166-6.384-1.989-9.426-3.145
	c-4.801-1.146-7.447-5.645-11.227-8.332c-5.145-1.594-10.446-2.656-15.55-4.374c-0.08-2.927,0.851-177.287,1.354-192.708
	c-1.045-0.599-35.892-19.902-39.973-19.716c-1.127,0.001-66.367,0.935-72.884,2.114c-1.302,2.635,0.01,5.343,0.812,7.895
	c0.719,0.063,2.146,0.208,2.864,0.271c-0.937,2.135-1.885,4.249-2.895,6.343c1.031,2.229,2.312,4.666,0.573,6.936
	c0.125,0.344,0.365,1.042,0.489,1.385c-0.594,0.594-1.166,1.198-1.718,1.823c0.646,0.729,1.281,1.479,1.916,2.26
	c-0.51,0.344-1.541,1.01-2.062,1.354c1.344,1.427,2.666,2.854,4.031,4.291c-0.698,0.25-2.104,0.76-2.802,1.01
	c0.24,1.573,0.406,3.176,0.854,4.718c1.385-0.083,2.781-0.281,4.187-0.448c0.333,0.833,0.687,1.677,1.062,2.531
	c-2.01,0.333-3.978,0.698-5.957,0.99c-0.021,1.177-0.063,3.531-0.083,4.708c1.271-0.51,1.281-1.927,1.604-3.062
	c1.156,0.167,3.489,0.5,4.645,0.656c-1.916,2.677-4.051,5.187-6.416,7.467c1.583,1.073,3.281,2.166,4.208,3.937
	c0.812,0.031,2.427,0.094,3.239,0.115c-2.375,1.469-5.208,1.448-7.843,1.968c1.24,0.625,2.51,1.25,3.812,1.885
	c-7.524,5.301-4.383-17.927-6.218,146.153c-4.26,0.531-8.645,0.063-12.821,1.042c-1.948,1.167-1.312,3.687-1.614,5.583
	c-1.448,0.115-2.875,0.25-4.281,0.385c-0.687-5.072-0.073-10.175-0.437-15.237c-3.989-2.583-8.926-2.01-13.404-1.823
	c-0.313,2.687-0.562,5.395-0.854,8.092c-4.041-1.062-7.822-2.864-11.852-3.885c-3.354-0.802-6.801,1.375-10.009,0.594
	c-0.573-2.812,0.135-5.905-1.219-8.509c-2.677-0.49-5.395-0.437-8.082-0.49c-0.188,2.979-0.323,5.978-0.5,8.978
	c-8.41,1.74-6.646-6.058-7.488,60.094c-7.343-0.437-14.31,2.083-21.517,2.823c0.979-19.903-0.219-39.848,0.958-59.73
	c0.135-1.677-1.75-2.437-2.635-3.572c-0.167-5.916,0.333-11.842-0.031-17.737c-1.521-0.937-3.239-1.51-4.853-2.156
	c0.052-1.046,1.111-36.55-0.208-38.952c-2.243-12.939-1.169-9.823-6.384-11.477c-6.469-13.036,1.236-12.031-12.352-18.434
	c-1.646-5.884-3.562-11.706-4.801-17.695c-2.125,0.781-4.239,1.573-6.332,2.364c-3.448-11.207-6.978-22.392-9.894-33.745
	c-1.156,0.698-2.281,1.416-3.395,2.135c-0.958-1.291-1.937-2.593-2.864-3.864c-3.218,3.104-4.624,8.019-8.655,10.165
	c-2.291-1.875-3.479-4.666-5.312-6.895c-1.208-0.135-2.395-0.208-3.572-0.24c-6.26-4.425-1.356-6.404-15.091,28.724
	c-2-0.812-3.979-1.718-6.093-2.114c-3.114,6.457-4.062,13.737-7.207,20.184c-2.073,0.875-4.364,0.146-6.489,0.073
	c-1.281,5.624-2.874,11.175-4.708,16.643c-1.479,0.229-2.948,0.479-4.385,0.74c-5.755,13.712-2.622,35.176-2.343,48.502
	c-1.864,1.031-3.697,2.093-5.52,3.166c0.25,5.156,0.177,10.311-0.135,15.466c-0.948,0.51-1.875,1.031-2.791,1.562
	c-0.536,5.8-1.017,98.427-2.385,106.514c0.708,0.708,1.489,1.448,2.26,2.177c-6.03-1.052-12.186-0.625-18.205-1.614
	c-0.437,0.219-1.312,0.677-1.75,0.896c0.823-26.704,0.885-53.418,1.469-80.122c-5.614-1.625-11.904-2.885-17.445-0.333
	c-0.312,0.021-0.927,0.073-1.239,0.094c1.816,5.796-0.164,69.581-0.198,70.624c-3.458,1.552-3.135-3.854-5.291-5.114
	c-1.583-0.417-3.166-0.667-4.739-0.969c-3,2.656-4.687,7.103-8.946,7.978c-0.76-1.271-1.437-2.479-2.177-3.718
	c-0.198,0.812-0.583,2.448-0.781,3.27c-1.562,0.094-3.083,0.219-4.603,0.344c-0.167,1.885-0.354,3.749-0.49,5.666
	c-0.385,0.021-1.156,0.083-1.541,0.104c0.521,1.843,0.917,3.739,1.156,5.666c-1.958-1.979-3.864-3.968-5.832-5.916
	c-1.427,0.833-2.916,1.573-4.187,2.625c-1.198,6.207-0.146,12.592-1.364,18.809c-2.947,2.77-2.708,7.259-1.896,10.894
	c-1.698,1.448-4.593,2.562-5.416-0.385c0.383-14.119-1.346-12.387,1.896-15.747c-1.01-1.479-1.948-3-2.791-4.551
	c1.042-0.063,3.104-0.188,4.135-0.25c-0.614-0.479-1.864-1.448-2.489-1.937c-0.208-1.281-0.438-2.562-0.667-3.812
	c0.604-1.166,1.229-2.312,1.864-3.447c1.385-0.302,2.802-0.552,4.197-0.937c3.09-22.005,5.418-426.849,6.603-443.542
	c-1.927-0.167-3.833-0.323-5.739-0.469c-0.285-3.235-0.445-16.64,0.646-25.215c-1.562-1.448-3.114-2.895-4.645-4.343
	c1.094-8.874,0.906-17.872,0.198-26.756c-3.573,3.93-2.327,21.58-1.864,25.715c-1.875,2.062-3.812,4.062-5.749,6.041
	c-0.198,8.165-0.052,16.341-0.375,24.506c-1.739,0.687-4.197,0.417-5.416,1.916c-0.625,4.499,0.646,9.165-0.583,13.591
	c-45.156,15.224-33.967,9.146-39.65,16.143c-5.53,0.614-11.155,0.312-16.643,1.312c-0.698,2.739-1.396,5.478-2.031,8.238
	c-3.229,0.271-6.489,0.948-9.707,0.427c-4.15-2.285,0.283-3.072-8.853-5.874c-0.177-1.573-0.365-3.156-0.521-4.718
	c-3.208-1.344-6.218-3.427-9.717-3.843c-1.056,0.006-35.343,0.439-40.66,2.25c-0.104,2.687-0.24,5.384-0.396,8.072
	c-3.833,1.166-7.811,1.073-11.738,0.854c-0.375,2.781-0.656,5.572-0.948,8.363c-8.329,0.053-29.279-6.31-37.661-3.26
	c-0.594,2.635-0.677,5.353-0.844,8.051c-0.563,0.375-1.698,1.125-2.271,1.5c-0.065,1.043-3.377,177.957-2.187,183.064
	c-0.208,0.51-0.615,1.552-0.812,2.062c0.317,4.379,0.725,72.166-0.312,80.164c-3.02,2.854-2.166,7.27-3.093,10.967
	c-9.957,0.687-19.924,0.5-29.891,0.75c-0.208,7.322,0,14.664-0.875,21.965c-1.719-0.333-3.395-0.656-5.093-0.979
	c-0.49,0.292-1.458,0.885-1.937,1.177c-0.521,1.01-1.031,2.031-1.521,3.052c-5.614,0.552-10.717-1.594-15.57-4.104
	c-3.906,1.885-8.269,1.51-12.435,2.01c-2.262,4.005-1.022,19.022-0.448,26.454c-1.208,3.926-1.239,8.072-1.541,12.133
	c-0.594,0-1.781,0-2.375-0.01c0.677,0.146,2.01,0.427,2.677,0.562c-0.906,1.646-1.469,3.583-2.843,4.926
	c-15.768,6.749-6.634,5.629-23.798,3.552c0.104-0.469,0.313-1.396,0.417-1.864c-1.427-0.844-2.843-1.698-4.249-2.531
	c-7.513-1.044-6.376-4.521-14.789-9.155c0.448-0.135,1.323-0.417,1.77-0.562c-1.51-0.115-3.01-0.219-4.478-0.313
	c-0.135,0.646-0.417,1.937-0.552,2.583c-0.812,0.094-2.437,0.292-3.25,0.385c-0.667-1.562-2.323-3.124-1.541-4.926
	c1.448-1.239,3.218-2,4.916-2.833c-2.031,0.146-4.062,0.323-6.082,0.146c-0.344-1.281-0.573-2.562-0.802-3.812
	c-2.937-0.958-1.75-4.478-2.02-6.676c0.916,1.521,1.812,3.083,2.697,4.655c-0.448-2.375-1.01-4.739-2.208-6.853
	c0.354-0.135,1.083-0.417,1.437-0.552c-3.725-2.527,0.111-41.037-0.333-53.21c-2.135-0.646-4.27-1.302-6.384-1.968
	c0.365-3.906,0.427-7.822,0.417-11.738c-2.041-0.573-4.072-1.135-6.082-1.708c0.01-1.271,0.031-2.531,0.063-3.781
	c-3.76-0.979-8.363-0.656-10.925-4.093c-27.121-7.371-55.738-6.166-56.782-6.312c-0.594-0.479-1.167-0.948-1.718-1.396
	c-7.415,2.01-15.05,3.145-22.215,6.02c-0.177-2.812,0.49-5.822-0.562-8.467c-2-2.448-5.676-2.021-8.478-2.864
	c0.094-2.614-0.031-5.249-1.073-7.676c-2.697-0.5-5.374-1.073-8.04-1.666c0.116-9.658,1.702-6.496-18.632-11.207
	c2.531-4.426,2.281-9.79,1.385-14.633c-1.281,2.093-1.927,4.478-2.489,6.853c0.229,2.208,0.271,4.437,0.187,6.676
	c-0.875-0.187-2.645-0.562-3.52-0.75c-3.197,1.531-6.738,1.479-10.144,0.864c-1.635,2.677-2.552,5.697-3.926,8.499
	c-1.895,0.833-3.999,0.896-6.009,1.198c-0.823,1.094-1.635,2.187-2.427,3.302c0.219,1.489,0.437,2.979,0.656,4.489
	c-2.635,0.094-5.249,0.208-7.874,0.281c-3.423,6.998-2.178,60.351-3.458,80.726c-4.312,2.021-9.269,1.073-13.841,1
	c0,2.427,0,4.864,0.052,7.301c-0.875,1.229-1.729,2.468-2.562,3.718c-7.145,0.031-14.362,1.25-21.413-0.469
	c-0.489,0.229-1.468,0.667-1.958,0.896c-2.479-1.25-4.958-2.468-7.509-3.541c0.458-0.25,1.385-0.729,1.843-0.969
	c-3.006-7.507-0.679-36.708-1.073-53.689c-0.552-0.5-1.656-1.5-2.208-2c0.104-3.823,0.135-7.634,0.198-11.446
	c-4.093-0.76-9.071,0.469-12.092-3.062c-0.073-2.708-0.219-5.416-0.375-8.103c-0.687-0.156-2.052-0.479-2.739-0.635
	c0.313-4.801-3.906-7.613-7.207-10.238c-13.704-9.979-23.04-5.902-28.412-7.051c-3.23-0.392-25.959-8.089-34.182-7.259
	c-16.671,1.529-41.127-18.894-63.719,6.832c-1.854,2.635-3.354,5.551-5.947,7.582c0.083,2.791,0.187,5.593,0.187,8.405
	c-4.176,0.562-8.322,1.396-12.488,1.989c-0.208,3.729-0.385,7.457-0.49,11.196c-0.5,0.333-1.5,1.021-2.01,1.364
	c-1.11,51.603,0.073,41.259-1.562,48.752c1.338,4.47-0.204,24.119-0.26,25.163c-6.478,4.041-14.341,1.573-21.392,2.854
	c-6.166,3.677-13.644,0.896-20.309,2.812c0.083-0.667,0.25-1.989,0.323-2.645c-18.192-2.362-16.901,2.922-24.663-3.614
	c-1.104,0.521-2.177,1.104-3.218,1.729c-3.057,0.268-10.093,3.276-30.255,1.635c-1.166-0.76-2.125-2.041-3.583-2.177
	c-1.823,0.927-3.458,2.177-5.145,3.333c0.615,1.094,1.229,2.198,1.843,3.322c-2.843-1.687-5.874-3.135-8.363-5.332
	c-0.26-2.073-0.219-4.156-0.24-6.218c-0.344-0.354-1.031-1.052-1.375-1.406c1.209-11.429,3.353-154.632,6.332-249.751
	c-7.936-2.27-16.299-1.26-24.402-2.135c-4.645-3.083-7.103-8.728-11.863-11.644c-56.987-7.296-83.369-6.075-99.713-7.572
	c-0.417-2.198-0.812-4.406-1.187-6.593c-1.354-0.26-2.697-0.5-4.051-0.729c1.031-3.281,1.75-7.655,6.103-7.478
	c-0.323-0.729-0.635-1.437-0.937-2.146c0-1.26-0.073-2.52-0.219-3.76c-1.083-0.833-2.281-1.521-3.374-2.312
	c-0.302-2.104,0.26-4.197,0.594-6.259c1.344-0.333,2.698-0.656,4.041-0.989c-0.406-2.239-0.771-4.489-1.094-6.738
	c-1.291-0.271-2.562-0.531-3.833-0.792c0.385-2.312,0.802-4.624,1.26-6.915c1.177-0.385,2.343-0.75,3.531-1.114
	c-0.115-2.187-0.063-4.406-0.542-6.541c-1.292-0.437-2.593-0.812-3.916-1.125c0.417-2.312,0.906-4.593,1.635-6.822
	c0.729-0.104,2.177-0.312,2.906-0.406c0.062-2.104,0.156-4.197,0.26-6.28c-1.271-0.573-2.531-1.135-3.801-1.687
	c0.073-2.291,0.052-4.583-0.063-6.874c1.51-0.219,3-0.448,4.51-0.646c-0.458-2.114-0.927-4.208-1.364-6.311
	c-1.416-0.396-2.822-0.792-4.218-1.167c0-1.562,0.021-3.114,0.021-4.666c0.635,0.042,1.906,0.125,2.541,0.156
	c-0.25-0.635-0.76-1.916-1.01-2.562c1.302-0.469,2.645-0.812,3.989-1.166c-0.469-2.26-0.906-4.51-1.385-6.749
	c-1.437-0.125-2.864-0.25-4.291-0.375c0.854-2.499,1.854-4.937,3-7.311c0.76-0.146,2.27-0.427,3.02-0.573
	c-0.271-2.208-0.521-4.416-0.739-6.624c-1.677-0.365-3.333-0.719-4.989-1.094c0.562-0.594,1.666-1.77,2.229-2.364
	c-0.219-0.792-0.635-2.385-0.844-3.187c1.635-0.719,3.291-1.416,4.947-2.093c-0.375-2.229-0.74-4.447-1.104-6.666
	c-1.469-0.219-2.937-0.437-4.395-0.635c0.375-2.229-0.01-4.739,1.156-6.728c1.531-0.635,3.145-1.052,4.749-1.5
	c-0.448-2.145-0.823-4.312-1.177-6.457c-1.323-0.281-2.635-0.542-3.958-0.812c0.073-1.646,0.146-3.281,0.219-4.905
	c1.604-1.062,3.229-2.093,4.885-3.083c-0.135-1.969-0.146-3.937-0.469-5.874c-1.5-0.75-3.072-1.291-4.624-1.885
	c0.198-1.614,0.406-3.229,0.604-4.843c1.614-0.896,3.218-1.823,4.833-2.708c-0.25-2.229-0.479-4.458-0.635-6.676
	c-1.427-0.364-2.843-0.719-4.26-1.083c-0.021-0.802-0.052-2.406-0.073-3.208c0.771-1.094,1.552-2.187,2.343-3.281
	c1.458-0.875,2.906-1.791,4.333-2.729c-1.312-2.312-2.541-4.676-3.781-7.03c-0.781,0.594-1.583,1.177-2.375,1.75
	c-0.198-2.281-0.25-4.572-0.365-6.853c1.854-0.542,3.708-1.073,5.562-1.594c-0.313-1.906-0.583-3.812-0.833-5.707
	c-1.479-0.687-2.958-1.364-4.437-2.031c-0.042-2.927,0.073-5.978,3.031-7.54c-0.073,0.927-0.229,2.77-0.312,3.697
	c0.208-0.865,0.417-1.718,0.625-2.572c1.073-0.635,2.145-1.25,3.218-1.875c-1.718-0.385-3.427-0.771-5.124-1.135
	c-2.586-6.141-0.099-46.606,0.031-47.648c-1.604-0.552-3.208-1.114-4.801-1.687c0-2.51-0.437-4.989-1.875-7.103
	c-1.062,1.864-1.843,3.864-2.479,5.916c-11.988-3.531-24.267-6.03-35.984-10.436c-4.968,0.385-9.925,1.073-14.914,1.021
	c-0.292-2.645-1.177-5.145-2.77-7.28c-1.625,0.875-3.218,2.271-5.197,1.718c-0.76-1.937-0.167-4.041-0.063-6.03
	c-1.646-1.156-3.302-2.281-4.968-3.395c-4.843,0.146-10.238-0.864-13.279-5.02c-0.875,0.531-1.739,1.052-2.593,1.593
	c-6.913-1.973-9.772-5.898-28.027-2.041c-1.614,0.896-2.187,2.948-3.489,4.229c-4.291,0.969-8.863,0.083-13.06,1.489
	c-2.677,3.104,0.042,8.582-3.343,11.446c-5.405-0.927-11.082-1.895-15.747-4.947c-28.456,2.24-25.009-1.028-27.6,2.312
	c-3.854,0.791-7.874,1.104-11.623-0.302c-3.687,1.458-7.582,2.218-11.55,2.239c-4.394,6.615-1.631,29.569-3.52,42.024
	c-1.718,1-3.666,1.5-5.499,2.239c1.906,0.989,3.833,1.937,5.791,2.854c-0.315,7.523,0.132,5.067-3.781,8.072
	c-0.469,1.843-0.937,3.687-1.396,5.53c1.468,0.562,2.927,1.125,4.395,1.687c-0.083,2.541-0.198,5.083-0.292,7.624h-2.968
	c-0.479,2.146-0.958,4.301-1.469,6.447c1.437,0.604,2.864,1.208,4.301,1.812c-0.062,2.5-0.167,4.999-0.24,7.509
	c-0.729-0.083-2.177-0.25-2.895-0.333c-0.531,2.114-1.041,4.239-1.573,6.374c1.635,0.896,3.27,1.791,4.905,2.687
	c-0.385,2.26-0.792,4.51-1.208,6.77c-0.708,0.052-2.114,0.146-2.822,0.198c-0.344,2.041-0.802,4.083-0.927,6.166
	c1.635,1,3.427,1.729,5.166,2.541c-0.01,1.802-0.01,3.614-0.021,5.437c-1.531,0.406-3.364,0.198-4.635,1.26
	c-0.583,2.146-0.76,4.374-1.052,6.582c4.762,2.575,6.073,1.796,5.322,8.363c-1.416,0.792-3.031,1.114-4.562,1.614
	c-0.469,1.989-0.927,3.968-1.416,5.957c1.937,0.833,3.885,1.656,5.832,2.479c-0.073,2.083-0.135,4.176-0.187,6.28
	c-1.521,0.229-3.041,0.448-4.562,0.687c-0.365,2.166-0.739,4.354-1.125,6.53c1.802,0.802,3.583,1.614,5.374,2.448
	c-0.187,1.958-0.365,3.926-0.542,5.895c-1.364,0.375-2.729,0.75-4.093,1.135c-0.437,1.916-0.875,3.833-1.344,5.749
	c1.906,0.864,3.822,1.718,5.749,2.562c-0.281,2.031-0.542,4.072-0.823,6.114c-1.271,0.333-2.51,0.739-3.739,1.219
	c-1.041,1.698-1.416,3.687-1.718,5.634c1.396,1.667,3.739,1.864,5.645,2.625c-0.062,1.823,0,3.666-0.385,5.468
	c-1.396,1.062-3,1.802-4.416,2.822c-0.583,1.802-0.698,3.718-0.979,5.593c1.812,0.656,3.687,1.239,5.385,2.187
	c-0.021,2.187,0.094,4.52-0.896,6.541c-1.323,0.156-2.656,0.271-3.989,0.354c-0.396,2.01-0.792,4.02-1.239,6.03
	c1.968,0.916,3.958,1.781,5.947,2.656c-0.312,1.989-0.24,4.114-1.073,5.999c-1.146,0.875-2.531,1.333-3.812,1.968
	c-0.542,1.843-1.104,3.687-1.427,5.603c1.75,0.917,3.624,1.562,5.468,2.25c-0.125,2.323-0.281,4.655-0.437,6.988
	c-1.26,0.104-2.51,0.208-3.77,0.323c-0.614,2.104-1.271,4.197-1.968,6.291c2.093,0.635,4.187,1.271,6.27,1.916
	c-0.292,2.364-0.573,4.728-0.906,7.093c-1.479,0.104-2.958,0.219-4.437,0.344c-0.26,2.104-0.51,4.218-0.833,6.332
	c1.906,0.823,3.812,1.656,5.707,2.52c-0.229,2.093-0.458,4.197-0.687,6.301c-1.562,0.229-3.135,0.417-4.666,0.792
	c-0.292,2.062-0.323,4.156-0.448,6.239c1.302,0.552,2.645,1.052,3.885,1.76c1.156,1.802,0.896,4.072,1.229,6.114
	c-1.666,0.615-3.333,1.208-4.999,1.833c-0.354,1.979-0.76,3.958-1.219,5.926c1.854,0.604,3.708,1.198,5.572,1.791
	c0.25,2.531,0,5.072-0.479,7.572c-1.291,0.042-2.583,0.094-3.864,0.156c-0.625,1.916-1.239,3.833-1.864,5.759
	c1.802,1.042,3.843,1.802,5.322,3.312c0.604,1.958,0.323,4.072,0.385,6.114c-1.521,0.302-3.031,0.614-4.541,0.948
	c-0.427,2.031-0.844,4.083-1.281,6.134c1.833,0.594,3.666,1.177,5.52,1.76c0.042,2.177,0.115,4.364,0.229,6.561
	c-0.229,0.417-0.687,1.26-0.917,1.677c-1.323,0.177-2.645,0.375-3.968,0.573c-0.406,2.093-1.073,4.218-0.823,6.374
	c1.552,0.729,3.177,1.312,4.78,1.948c0.125,2.052,0.24,4.114,0.354,6.176c-1.646,0.469-3.302,0.937-4.947,1.406
	c-0.292,1.989-0.583,3.989-0.885,5.989c1.823,0.687,3.656,1.375,5.489,2.073c-0.146,2.177-0.292,4.374-0.427,6.572
	c-1.448,0.5-2.895,1-4.333,1.51c-0.333,2.021-0.687,4.062-1.041,6.093c1.76,0.396,3.531,0.802,5.291,1.198
	c-0.031,2.51-0.062,5.02-0.125,7.54c-1.354,0.115-2.708,0.229-4.062,0.354c-0.698,2.052-1.427,4.083-2.166,6.135
	c2.01,0.75,4.02,1.479,6.051,2.187c-0.167,2.208-0.385,4.416-0.771,6.614c-0.948-0.063-2.833-0.167-3.781-0.219
	c-0.469,2.499-1.583,5.03-1.208,7.613c1.677,0.667,3.447,1.094,5.197,1.614c-0.031,2.364-0.042,4.739-0.062,7.113
	c-1.541,0.344-3.093,0.687-4.635,1.052c-0.365,1.989-0.719,3.999-1.083,6.009c1.916,0.698,3.833,1.385,5.759,2.083
	c-0.146,1.958-0.135,3.968-0.729,5.874c-1.239,1.094-2.854,1.562-4.322,2.26c-0.406,1.895-0.854,3.801-1.291,5.707
	c1.885,0.531,3.781,1.073,5.666,1.635c-0.052,2.364-0.083,4.749-0.104,7.134c-1.531,0.146-3.072,0.313-4.603,0.479
	c-0.427,2.052-0.844,4.114-1.281,6.186c1.916,0.708,3.833,1.406,5.759,2.114c-0.042,2.208,0.052,4.426-0.25,6.624
	c-1.396,0.625-2.864,1.062-4.312,1.552c-0.531,1.802-1.062,3.614-1.625,5.437c2.614,0.792,5.01,2.114,6.822,4.197
	c-2.073,3.166-5.405,5.447-6.655,9.144c-2.5,0.031-4.999,0.25-7.436,0.823c-0.264-0.072-0.528-0.137-0.792-0.207v3.932H19.54
	c-0.36,0.202-0.727,0.39-1.084,0.598c-2.937-0.219-5.874-0.427-8.821-0.469c0.011-0.043,0.025-0.086,0.038-0.129H0v587.774h2559.999
	V755.388z M970.383,640.321c-0.156-3.926-1.458-8.384,0.823-11.904C971.3,632.364,971.831,636.53,970.383,640.321z"/>
</svg>
